<mxfile host="65bd71144e">
    <diagram id="_tDs0RsYlQ4fGwmbFPf8" name="画面遷移図">
        <mxGraphModel dx="2540" dy="2001" grid="1" gridSize="10" guides="1" tooltips="1" connect="1" arrows="1" fold="1" page="1" pageScale="1" pageWidth="827" pageHeight="1169" math="0" shadow="0">
            <root>
                <mxCell id="0"/>
                <mxCell id="1" parent="0"/>
                <mxCell id="6" value="" style="edgeStyle=none;html=1;" parent="1" edge="1">
                    <mxGeometry relative="1" as="geometry">
                        <mxPoint x="210" y="60" as="sourcePoint"/>
                        <mxPoint x="370" y="60" as="targetPoint"/>
                    </mxGeometry>
                </mxCell>
                <mxCell id="kCsaJ0fg4Aw9UNDFYanI-20" style="edgeStyle=none;html=1;" parent="1" source="2" target="kCsaJ0fg4Aw9UNDFYanI-19" edge="1">
                    <mxGeometry relative="1" as="geometry"/>
                </mxCell>
                <mxCell id="kCsaJ0fg4Aw9UNDFYanI-71" style="edgeStyle=none;html=1;entryX=0.5;entryY=1;entryDx=0;entryDy=0;" parent="1" target="kCsaJ0fg4Aw9UNDFYanI-63" edge="1">
                    <mxGeometry relative="1" as="geometry">
                        <mxPoint x="80" y="-330" as="sourcePoint"/>
                        <mxPoint x="420" y="-260" as="targetPoint"/>
                    </mxGeometry>
                </mxCell>
                <mxCell id="2" value="ログイン画面" style="rounded=0;whiteSpace=wrap;html=1;" parent="1" vertex="1">
                    <mxGeometry x="90" y="40" width="120" height="60" as="geometry"/>
                </mxCell>
                <mxCell id="5" value="ホーム画面" style="rounded=0;whiteSpace=wrap;html=1;" parent="1" vertex="1">
                    <mxGeometry x="370" y="40" width="120" height="60" as="geometry"/>
                </mxCell>
                <mxCell id="kCsaJ0fg4Aw9UNDFYanI-15" value="" style="edgeStyle=segmentEdgeStyle;endArrow=classic;html=1;curved=0;rounded=0;endSize=8;startSize=8;entryX=0.25;entryY=0;entryDx=0;entryDy=0;exitX=0.412;exitY=-0.01;exitDx=0;exitDy=0;exitPerimeter=0;" parent="1" target="2" edge="1">
                    <mxGeometry width="50" height="50" relative="1" as="geometry">
                        <mxPoint x="169.4399999999996" y="39.399999999999864" as="sourcePoint"/>
                        <mxPoint x="150" as="targetPoint"/>
                        <Array as="points">
                            <mxPoint x="169"/>
                            <mxPoint x="120"/>
                        </Array>
                    </mxGeometry>
                </mxCell>
                <mxCell id="kCsaJ0fg4Aw9UNDFYanI-16" value="ログイン失敗" style="text;html=1;align=center;verticalAlign=middle;resizable=0;points=[];autosize=1;strokeColor=none;fillColor=none;" parent="1" vertex="1">
                    <mxGeometry x="100" y="-30" width="100" height="30" as="geometry"/>
                </mxCell>
                <mxCell id="kCsaJ0fg4Aw9UNDFYanI-41" style="edgeStyle=none;html=1;entryX=0.5;entryY=0;entryDx=0;entryDy=0;" parent="1" source="kCsaJ0fg4Aw9UNDFYanI-19" target="kCsaJ0fg4Aw9UNDFYanI-38" edge="1">
                    <mxGeometry relative="1" as="geometry"/>
                </mxCell>
                <mxCell id="kCsaJ0fg4Aw9UNDFYanI-19" value="新規登録画面" style="rounded=0;whiteSpace=wrap;html=1;" parent="1" vertex="1">
                    <mxGeometry x="90" y="180" width="120" height="60" as="geometry"/>
                </mxCell>
                <mxCell id="kCsaJ0fg4Aw9UNDFYanI-21" value="新規登録ボタン&lt;br&gt;&lt;div&gt;を押す&lt;/div&gt;" style="text;html=1;align=center;verticalAlign=middle;resizable=0;points=[];autosize=1;strokeColor=none;fillColor=none;" parent="1" vertex="1">
                    <mxGeometry x="50" y="120" width="110" height="40" as="geometry"/>
                </mxCell>
                <mxCell id="12" value="シラバス画面" style="rounded=0;whiteSpace=wrap;html=1;" parent="1" vertex="1">
                    <mxGeometry x="660" y="-70" width="120" height="60" as="geometry"/>
                </mxCell>
                <mxCell id="13" value="お知らせ画面" style="rounded=0;whiteSpace=wrap;html=1;" parent="1" vertex="1">
                    <mxGeometry x="660" y="-70" width="120" height="60" as="geometry"/>
                </mxCell>
                <mxCell id="14" value="バス時刻表" style="rounded=0;whiteSpace=wrap;html=1;" parent="1" vertex="1">
                    <mxGeometry x="660" y="40" width="120" height="60" as="geometry"/>
                </mxCell>
                <mxCell id="15" value="マップ画面" style="rounded=0;whiteSpace=wrap;html=1;" parent="1" vertex="1">
                    <mxGeometry x="660" y="-180" width="120" height="60" as="geometry"/>
                </mxCell>
                <mxCell id="kCsaJ0fg4Aw9UNDFYanI-23" value="" style="edgeStyle=segmentEdgeStyle;endArrow=classic;html=1;curved=0;rounded=0;endSize=8;startSize=8;exitX=1;exitY=0.5;exitDx=0;exitDy=0;entryX=0;entryY=0.5;entryDx=0;entryDy=0;" parent="1" source="5" target="15" edge="1">
                    <mxGeometry width="50" height="50" relative="1" as="geometry">
                        <mxPoint x="305.02000000000044" y="235" as="sourcePoint"/>
                        <mxPoint x="554.98" y="180" as="targetPoint"/>
                        <Array as="points">
                            <mxPoint x="520" y="70"/>
                            <mxPoint x="520" y="-150"/>
                        </Array>
                    </mxGeometry>
                </mxCell>
                <mxCell id="18" value="設定画面" style="rounded=0;whiteSpace=wrap;html=1;" parent="1" vertex="1">
                    <mxGeometry x="660" y="270" width="120" height="60" as="geometry"/>
                </mxCell>
                <mxCell id="19" value="" style="edgeStyle=segmentEdgeStyle;endArrow=classic;html=1;curved=0;rounded=0;endSize=8;startSize=8;entryX=0;entryY=0.5;entryDx=0;entryDy=0;" parent="1" target="13" edge="1">
                    <mxGeometry width="50" height="50" relative="1" as="geometry">
                        <mxPoint x="490" y="70" as="sourcePoint"/>
                        <mxPoint x="560" y="-80" as="targetPoint"/>
                        <Array as="points">
                            <mxPoint x="520" y="70"/>
                            <mxPoint x="520" y="-40"/>
                        </Array>
                    </mxGeometry>
                </mxCell>
                <mxCell id="20" value="" style="edgeStyle=segmentEdgeStyle;endArrow=classic;html=1;curved=0;rounded=0;endSize=8;startSize=8;entryX=0;entryY=0.5;entryDx=0;entryDy=0;" parent="1" target="14" edge="1">
                    <mxGeometry width="50" height="50" relative="1" as="geometry">
                        <mxPoint x="490" y="70" as="sourcePoint"/>
                        <mxPoint x="540" y="20" as="targetPoint"/>
                    </mxGeometry>
                </mxCell>
                <mxCell id="21" value="" style="edgeStyle=segmentEdgeStyle;endArrow=classic;html=1;curved=0;rounded=0;endSize=8;startSize=8;entryX=0;entryY=0.5;entryDx=0;entryDy=0;" parent="1" target="18" edge="1">
                    <mxGeometry width="50" height="50" relative="1" as="geometry">
                        <mxPoint x="490" y="70" as="sourcePoint"/>
                        <mxPoint x="540" y="180" as="targetPoint"/>
                        <Array as="points">
                            <mxPoint x="520" y="70"/>
                            <mxPoint x="520" y="300"/>
                        </Array>
                    </mxGeometry>
                </mxCell>
                <mxCell id="kCsaJ0fg4Aw9UNDFYanI-27" value="マップを押す" style="text;html=1;align=center;verticalAlign=middle;resizable=0;points=[];autosize=1;strokeColor=none;fillColor=none;" parent="1" vertex="1">
                    <mxGeometry x="540" y="-180" width="100" height="30" as="geometry"/>
                </mxCell>
                <mxCell id="kCsaJ0fg4Aw9UNDFYanI-28" value="お知らせを押す" style="text;html=1;align=center;verticalAlign=middle;resizable=0;points=[];autosize=1;strokeColor=none;fillColor=none;" parent="1" vertex="1">
                    <mxGeometry x="530" y="-70" width="110" height="30" as="geometry"/>
                </mxCell>
                <mxCell id="kCsaJ0fg4Aw9UNDFYanI-29" value="バスの時刻表示&lt;br&gt;ボタンを押す" style="text;html=1;align=center;verticalAlign=middle;resizable=0;points=[];autosize=1;strokeColor=none;fillColor=none;" parent="1" vertex="1">
                    <mxGeometry x="535" y="30" width="110" height="40" as="geometry"/>
                </mxCell>
                <mxCell id="kCsaJ0fg4Aw9UNDFYanI-30" value="設定ボタンを押す" style="text;html=1;align=center;verticalAlign=middle;resizable=0;points=[];autosize=1;strokeColor=none;fillColor=none;" parent="1" vertex="1">
                    <mxGeometry x="520" y="270" width="120" height="30" as="geometry"/>
                </mxCell>
                <mxCell id="kCsaJ0fg4Aw9UNDFYanI-37" value="登録成功" style="text;html=1;align=center;verticalAlign=middle;resizable=0;points=[];autosize=1;strokeColor=none;fillColor=none;" parent="1" vertex="1">
                    <mxGeometry x="150" y="270" width="70" height="30" as="geometry"/>
                </mxCell>
                <mxCell id="kCsaJ0fg4Aw9UNDFYanI-44" style="edgeStyle=none;html=1;entryX=1;entryY=0.5;entryDx=0;entryDy=0;" parent="1" source="kCsaJ0fg4Aw9UNDFYanI-38" target="kCsaJ0fg4Aw9UNDFYanI-43" edge="1">
                    <mxGeometry relative="1" as="geometry"/>
                </mxCell>
                <mxCell id="kCsaJ0fg4Aw9UNDFYanI-38" value="メール送信&lt;br&gt;通知画面" style="rounded=0;whiteSpace=wrap;html=1;" parent="1" vertex="1">
                    <mxGeometry x="90" y="330" width="120" height="60" as="geometry"/>
                </mxCell>
                <mxCell id="kCsaJ0fg4Aw9UNDFYanI-40" value="" style="edgeStyle=segmentEdgeStyle;endArrow=classic;html=1;curved=0;rounded=0;endSize=8;startSize=8;entryX=0;entryY=0.5;entryDx=0;entryDy=0;exitX=0.5;exitY=0;exitDx=0;exitDy=0;" parent="1" source="kCsaJ0fg4Aw9UNDFYanI-43" edge="1">
                    <mxGeometry width="50" height="50" relative="1" as="geometry">
                        <mxPoint x="-40" y="310" as="sourcePoint"/>
                        <mxPoint x="90" y="70" as="targetPoint"/>
                        <Array as="points">
                            <mxPoint x="-80" y="70"/>
                        </Array>
                    </mxGeometry>
                </mxCell>
                <mxCell id="kCsaJ0fg4Aw9UNDFYanI-43" value="&lt;span style=&quot;color: rgb(0, 0, 0);&quot;&gt;プロフィール&lt;/span&gt;&lt;br style=&quot;color: rgb(63, 63, 63); scrollbar-color: rgb(226, 226, 226) rgb(251, 251, 251);&quot;&gt;&lt;div style=&quot;color: rgb(63, 63, 63); scrollbar-color: rgb(226, 226, 226) rgb(251, 251, 251);&quot;&gt;登録画面&lt;/div&gt;" style="rounded=0;whiteSpace=wrap;html=1;" parent="1" vertex="1">
                    <mxGeometry x="-140" y="330" width="120" height="60" as="geometry"/>
                </mxCell>
                <mxCell id="kCsaJ0fg4Aw9UNDFYanI-45" value="メールを送信&lt;br&gt;リンクをクリック" style="text;html=1;align=center;verticalAlign=middle;resizable=0;points=[];autosize=1;strokeColor=none;fillColor=none;" parent="1" vertex="1">
                    <mxGeometry x="-20" y="320" width="120" height="40" as="geometry"/>
                </mxCell>
                <mxCell id="kCsaJ0fg4Aw9UNDFYanI-46" value="完了ボタンを押す" style="text;html=1;align=center;verticalAlign=middle;resizable=0;points=[];autosize=1;strokeColor=none;fillColor=none;" parent="1" vertex="1">
                    <mxGeometry x="-190" y="200" width="120" height="30" as="geometry"/>
                </mxCell>
                <mxCell id="kCsaJ0fg4Aw9UNDFYanI-47" value="" style="edgeStyle=segmentEdgeStyle;endArrow=classic;html=1;curved=0;rounded=0;endSize=8;startSize=8;exitX=1;exitY=0.25;exitDx=0;exitDy=0;" parent="1" source="kCsaJ0fg4Aw9UNDFYanI-19" edge="1">
                    <mxGeometry width="50" height="50" relative="1" as="geometry">
                        <mxPoint x="260" y="162.29000000000002" as="sourcePoint"/>
                        <mxPoint x="210" y="230" as="targetPoint"/>
                        <Array as="points">
                            <mxPoint x="250" y="195"/>
                            <mxPoint x="250" y="230"/>
                        </Array>
                    </mxGeometry>
                </mxCell>
                <mxCell id="22" value="" style="endArrow=classic;html=1;" parent="1" edge="1">
                    <mxGeometry width="50" height="50" relative="1" as="geometry">
                        <mxPoint x="370" y="90" as="sourcePoint"/>
                        <mxPoint x="210" y="90" as="targetPoint"/>
                    </mxGeometry>
                </mxCell>
                <mxCell id="23" value="ログアウト" style="text;html=1;align=center;verticalAlign=middle;whiteSpace=wrap;rounded=0;" parent="1" vertex="1">
                    <mxGeometry x="260" y="90" width="70" height="30" as="geometry"/>
                </mxCell>
                <mxCell id="kCsaJ0fg4Aw9UNDFYanI-48" value="登録失敗" style="text;html=1;align=center;verticalAlign=middle;resizable=0;points=[];autosize=1;strokeColor=none;fillColor=none;" parent="1" vertex="1">
                    <mxGeometry x="250" y="200" width="70" height="30" as="geometry"/>
                </mxCell>
                <mxCell id="kCsaJ0fg4Aw9UNDFYanI-49" value="/home" style="text;html=1;align=center;verticalAlign=middle;resizable=0;points=[];autosize=1;strokeColor=none;fillColor=none;" parent="1" vertex="1">
                    <mxGeometry x="690" y="-210" width="60" height="30" as="geometry"/>
                </mxCell>
                <mxCell id="kCsaJ0fg4Aw9UNDFYanI-50" value="/home" style="text;html=1;align=center;verticalAlign=middle;resizable=0;points=[];autosize=1;strokeColor=none;fillColor=none;" parent="1" vertex="1">
                    <mxGeometry x="400" y="10" width="60" height="30" as="geometry"/>
                </mxCell>
                <mxCell id="kCsaJ0fg4Aw9UNDFYanI-51" value="/home" style="text;html=1;align=center;verticalAlign=middle;resizable=0;points=[];autosize=1;strokeColor=none;fillColor=none;" parent="1" vertex="1">
                    <mxGeometry x="690" y="-100" width="60" height="30" as="geometry"/>
                </mxCell>
                <mxCell id="kCsaJ0fg4Aw9UNDFYanI-52" value="/home" style="text;html=1;align=center;verticalAlign=middle;resizable=0;points=[];autosize=1;strokeColor=none;fillColor=none;" parent="1" vertex="1">
                    <mxGeometry x="690" y="10" width="60" height="30" as="geometry"/>
                </mxCell>
                <mxCell id="kCsaJ0fg4Aw9UNDFYanI-53" value="/setting" style="text;html=1;align=center;verticalAlign=middle;resizable=0;points=[];autosize=1;strokeColor=none;fillColor=none;" parent="1" vertex="1">
                    <mxGeometry x="690" y="240" width="60" height="30" as="geometry"/>
                </mxCell>
                <mxCell id="kCsaJ0fg4Aw9UNDFYanI-54" value="シラバス画面" style="rounded=0;whiteSpace=wrap;html=1;" parent="1" vertex="1">
                    <mxGeometry x="660" y="140" width="120" height="60" as="geometry"/>
                </mxCell>
                <mxCell id="kCsaJ0fg4Aw9UNDFYanI-55" value="" style="edgeStyle=segmentEdgeStyle;endArrow=classic;html=1;curved=0;rounded=0;endSize=8;startSize=8;entryX=0;entryY=0.5;entryDx=0;entryDy=0;exitX=1;exitY=0.5;exitDx=0;exitDy=0;" parent="1" source="5" target="kCsaJ0fg4Aw9UNDFYanI-54" edge="1">
                    <mxGeometry width="50" height="50" relative="1" as="geometry">
                        <mxPoint x="530" y="190" as="sourcePoint"/>
                        <mxPoint x="580" y="140" as="targetPoint"/>
                        <Array as="points">
                            <mxPoint x="520" y="70"/>
                            <mxPoint x="520" y="170"/>
                        </Array>
                    </mxGeometry>
                </mxCell>
                <mxCell id="kCsaJ0fg4Aw9UNDFYanI-56" value="授業名を押す" style="text;html=1;align=center;verticalAlign=middle;resizable=0;points=[];autosize=1;strokeColor=none;fillColor=none;" parent="1" vertex="1">
                    <mxGeometry x="540" y="140" width="100" height="30" as="geometry"/>
                </mxCell>
                <mxCell id="kCsaJ0fg4Aw9UNDFYanI-57" value="/home" style="text;html=1;align=center;verticalAlign=middle;resizable=0;points=[];autosize=1;strokeColor=none;fillColor=none;" parent="1" vertex="1">
                    <mxGeometry x="690" y="110" width="60" height="30" as="geometry"/>
                </mxCell>
                <mxCell id="kCsaJ0fg4Aw9UNDFYanI-59" value="" style="edgeStyle=segmentEdgeStyle;endArrow=classic;html=1;curved=0;rounded=0;endSize=8;startSize=8;entryX=0.5;entryY=1;entryDx=0;entryDy=0;exitX=0.5;exitY=1;exitDx=0;exitDy=0;" parent="1" source="18" target="5" edge="1">
                    <mxGeometry width="50" height="50" relative="1" as="geometry">
                        <mxPoint x="720" y="420" as="sourcePoint"/>
                        <mxPoint x="510" y="370" as="targetPoint"/>
                        <Array as="points">
                            <mxPoint x="720" y="410"/>
                            <mxPoint x="430" y="410"/>
                        </Array>
                    </mxGeometry>
                </mxCell>
                <mxCell id="kCsaJ0fg4Aw9UNDFYanI-61" value="完了ボタンを押す" style="text;html=1;align=center;verticalAlign=middle;resizable=0;points=[];autosize=1;strokeColor=none;fillColor=none;" parent="1" vertex="1">
                    <mxGeometry x="510" y="380" width="120" height="30" as="geometry"/>
                </mxCell>
                <mxCell id="kCsaJ0fg4Aw9UNDFYanI-77" style="edgeStyle=none;html=1;entryX=0;entryY=0.5;entryDx=0;entryDy=0;" parent="1" source="kCsaJ0fg4Aw9UNDFYanI-63" target="kCsaJ0fg4Aw9UNDFYanI-75" edge="1">
                    <mxGeometry relative="1" as="geometry"/>
                </mxCell>
                <mxCell id="kCsaJ0fg4Aw9UNDFYanI-79" style="edgeStyle=none;html=1;exitX=0.5;exitY=1;exitDx=0;exitDy=0;" parent="1" edge="1">
                    <mxGeometry relative="1" as="geometry">
                        <mxPoint x="50" y="-330" as="targetPoint"/>
                        <mxPoint x="50" y="-420" as="sourcePoint"/>
                    </mxGeometry>
                </mxCell>
                <mxCell id="kCsaJ0fg4Aw9UNDFYanI-63" value="授業登録画面" style="rounded=0;whiteSpace=wrap;html=1;" parent="1" vertex="1">
                    <mxGeometry x="20" y="-480" width="120" height="60" as="geometry"/>
                </mxCell>
                <mxCell id="kCsaJ0fg4Aw9UNDFYanI-65" value="ログイン成功&lt;br&gt;&lt;div&gt;(教員)&lt;/div&gt;" style="text;html=1;align=center;verticalAlign=middle;resizable=0;points=[];autosize=1;strokeColor=none;fillColor=none;" parent="1" vertex="1">
                    <mxGeometry x="90" y="-400" width="100" height="40" as="geometry"/>
                </mxCell>
                <mxCell id="kCsaJ0fg4Aw9UNDFYanI-66" value="ログイン成功" style="text;html=1;align=center;verticalAlign=middle;resizable=0;points=[];autosize=1;strokeColor=none;fillColor=none;" parent="1" vertex="1">
                    <mxGeometry x="235" y="25" width="100" height="30" as="geometry"/>
                </mxCell>
                <mxCell id="kCsaJ0fg4Aw9UNDFYanI-73" value="ログアウト" style="text;html=1;align=center;verticalAlign=middle;resizable=0;points=[];autosize=1;strokeColor=none;fillColor=none;" parent="1" vertex="1">
                    <mxGeometry x="-30" y="-390" width="80" height="30" as="geometry"/>
                </mxCell>
                <mxCell id="kCsaJ0fg4Aw9UNDFYanI-74" value="/teacher" style="text;html=1;align=center;verticalAlign=middle;resizable=0;points=[];autosize=1;strokeColor=none;fillColor=none;" parent="1" vertex="1">
                    <mxGeometry x="40" y="-510" width="70" height="30" as="geometry"/>
                </mxCell>
                <mxCell id="kCsaJ0fg4Aw9UNDFYanI-75" value="設定画面" style="rounded=0;whiteSpace=wrap;html=1;" parent="1" vertex="1">
                    <mxGeometry x="240" y="-480" width="120" height="60" as="geometry"/>
                </mxCell>
                <mxCell id="kCsaJ0fg4Aw9UNDFYanI-76" value="/setting" style="text;html=1;align=center;verticalAlign=middle;resizable=0;points=[];autosize=1;strokeColor=none;fillColor=none;" parent="1" vertex="1">
                    <mxGeometry x="270" y="-510" width="60" height="30" as="geometry"/>
                </mxCell>
                <mxCell id="26" value="講義設定画面" style="rounded=0;whiteSpace=wrap;html=1;" parent="1" vertex="1">
                    <mxGeometry x="660" y="-280" width="120" height="60" as="geometry"/>
                </mxCell>
                <mxCell id="27" value="" style="edgeStyle=segmentEdgeStyle;endArrow=classic;html=1;curved=0;rounded=0;endSize=8;startSize=8;entryX=0;entryY=0.5;entryDx=0;entryDy=0;" parent="1" target="26" edge="1">
                    <mxGeometry width="50" height="50" relative="1" as="geometry">
                        <mxPoint x="490" y="70" as="sourcePoint"/>
                        <mxPoint x="540" y="-250" as="targetPoint"/>
                        <Array as="points">
                            <mxPoint x="520" y="70"/>
                            <mxPoint x="520" y="-250"/>
                        </Array>
                    </mxGeometry>
                </mxCell>
                <mxCell id="kCsaJ0fg4Aw9UNDFYanI-80" value="講義設定ボタンを押す&lt;br&gt;(教師アカウントのみ可能)" style="text;html=1;align=center;verticalAlign=middle;resizable=0;points=[];autosize=1;strokeColor=none;fillColor=none;" parent="1" vertex="1">
                    <mxGeometry x="500" y="-290" width="160" height="40" as="geometry"/>
                </mxCell>
                <mxCell id="kCsaJ0fg4Aw9UNDFYanI-81" value="/teacher" style="text;html=1;align=center;verticalAlign=middle;resizable=0;points=[];autosize=1;strokeColor=none;fillColor=none;" parent="1" vertex="1">
                    <mxGeometry x="690" y="-310" width="70" height="30" as="geometry"/>
                </mxCell>
            </root>
        </mxGraphModel>
    </diagram>
</mxfile>
